<svg xmlns="http://www.w3.org/2000/svg" width="33" height="33" viewBox="0 0 33 33"><g fill="none" fill-rule="evenodd" stroke="#000" stroke-linejoin="round" stroke-width=".866"><path d="M16.691 8.564h15.858v23.934H8.752V16.644"/><path d="M32.549 32.498l-5.516-8.665-4.738 2.736-5.035-8.833-8.509 4.807"/><path stroke-linecap="round" d="M26.6 14.02a1.93 1.93 0 1 0-3.86 0 1.93 1.93 0 0 0 3.85 0zm-9.9-5.3a7.935 7.935 0 1 0-15.87 0 7.93 7.93 0 0 0 15.86 0z"/><path d="M15.328 4.3H8.764v2.561h7.691M16.455 10.378H4.801v2.56h10.674"/></g></svg>