<?xml version="1.0" encoding="utf-8"?>
<!-- Generator: Adobe Illustrator 19.1.0, SVG Export Plug-In . SVG Version: 6.00 Build 0)  -->
<!DOCTYPE svg PUBLIC "-//W3C//DTD SVG 1.1//EN" "http://www.w3.org/Graphics/SVG/1.1/DTD/svg11.dtd">
<svg version="1.1" id="Layer_1" xmlns="http://www.w3.org/2000/svg" xmlns:xlink="http://www.w3.org/1999/xlink" x="0px" y="0px"
	 width="1300px" height="480px" viewBox="0 0 1300 480" style="enable-background:new 0 0 1300 480;" xml:space="preserve">
<g>
	<rect x="74.534" y="238.485" width="14.631" height="153.592"/>
	<path d="M131.764,379.619h50.336c21.741,0,40.466-6.679,40.466-31.625c0-19.788-14.631-29.7-40.466-29.7h-50.336V379.619z
		 M131.764,305.819h50.336c23.235,0,34.634-11.614,34.634-26.044c0-19.149-11.607-28.831-34.634-28.831h-50.336V305.819z
		 M117.126,238.482h64.973c25.835,0,49.293,9.029,49.293,37.623c0,16.153-10.773,31.034-26.697,34.454v0.41
		c19.795,2.592,32.507,17.425,32.507,37.429c0,14.652-5.178,43.691-55.104,43.691h-64.973V238.482z"/>
	<polygon points="383.689,238.482 330.795,373.155 277.652,238.482 256.154,238.482 256.154,392.089 270.757,392.089 
		270.757,259.355 271.174,259.355 323.914,392.089 337.683,392.089 390.174,259.355 390.611,259.355 390.611,392.089 
		405.221,392.089 405.221,238.482 	"/>
	<polygon points="638.481,238.482 613.299,344.325 612.862,344.325 586.596,238.482 555.012,238.482 528.309,343.046 
		527.871,343.046 503.572,238.482 469.827,238.482 510.453,392.089 544.656,392.089 570.283,287.504 570.714,287.504 
		596.744,392.089 630.307,392.089 671.614,238.482 	"/>
	<path d="M735.306,337.647c-5.164,4.532-15.938,4.726-25.383,6.464c-9.467,1.703-18.092,5.15-18.092,16.362
		c0,11.183,8.848,14.186,18.732,14.186c23.882,0,24.744-18.718,24.744-25.613V337.647z M664.766,315.065
		c1.703-28.414,27.315-37.199,52.261-37.199c22.144,0,48.834,4.9,48.834,31.59v57.863c0,10.155,1.091,20.261,3.892,24.758h-30.992
		c-1.078-3.406-1.94-7.083-2.148-10.732c-9.71,10.099-23.659,13.762-37.443,13.762c-21.283,0-37.846-10.558-37.846-33.363
		c0.41-50.523,75.288-23.416,73.982-48.376c0-12.935-9.036-15.089-19.781-15.089c-11.844,0-19.163,4.747-20.24,16.785H664.766z"/>
	<path d="M821.604,280.86h22.366v20.442h-22.366v55.076c0,10.328,2.572,12.9,12.893,12.9c3.461,0,6.686-0.202,9.473-0.855v23.91
		c-5.164,0.82-11.809,1.043-17.87,1.043c-18.919,0-35.052-4.08-35.052-26.468v-65.606h-18.488V280.86h18.488v-33.348h30.555V280.86z
		"/>
	<path d="M881.204,355.941c0,13.137,11.642,18.718,23.458,18.718c8.591,0,19.996-3.447,19.996-14.186
		c0-9.251-12.9-12.719-34.62-17.223c-17.849-4.094-35.288-9.884-35.288-29.686c0-28.414,24.528-35.698,48.397-35.698
		c24.118,0,46.707,8.16,49.063,35.503h-29.039c-0.855-11.844-9.918-15.089-20.866-15.089c-6.888,0-17.008,1.098-17.008,10.335
		c0,10.982,17.453,12.49,34.627,16.563c17.863,4.101,35.308,10.558,35.308,31.201c0,29.262-25.605,38.728-50.773,38.728
		c-25.814,0-51.225-9.668-52.302-39.166H881.204z"/>
	<path d="M1021.705,372.083c20.858,0,27.107-17.647,27.107-35.496c0-17.849-6.248-35.705-27.107-35.705
		c-20.643,0-26.885,17.856-26.885,35.705C994.82,354.436,1001.062,372.083,1021.705,372.083 M1021.705,277.869
		c35.079,0,57.682,23.222,57.682,58.718c0,35.267-22.603,58.516-57.682,58.516c-34.85,0-57.432-23.249-57.432-58.516
		C964.273,301.09,986.855,277.869,1021.705,277.869"/>
	<path d="M1090.353,280.86h29.053v15.5h0.66c7.736-12.699,21.06-18.488,33.988-18.488c32.479,0,40.64,18.266,40.64,45.79v68.428
		h-30.534v-62.812c0-18.314-5.178-27.343-19.558-27.343c-16.612,0-23.694,9.286-23.694,31.861v58.294h-30.554V280.86z"/>
	<path d="M87.273,130.78h24.959c14.492,0.139,20.942-6.186,20.942-17.599c0-11.399-6.45-17.571-20.942-17.571H87.273V130.78z
		 M74.533,84.893h41.995c19.19,0,29.387,10.468,29.387,28.289c0,17.835-10.196,28.449-29.387,28.323H87.273v39.173h-12.74V84.893z"
		/>
	<path d="M184.154,172.231c11.941,0,21.602-9.39,21.602-26.169c0-16.786-9.661-26.301-21.602-26.301
		c-11.955,0-21.602,9.515-21.602,26.301C162.552,162.84,172.199,172.231,184.154,172.231 M184.154,109.711
		c22.005,0,33.675,15.966,33.675,36.351c0,20.261-11.67,36.24-33.675,36.24c-22.005,0-33.689-15.979-33.689-36.24
		C150.465,125.676,162.148,109.711,184.154,109.711"/>
	<polygon points="294.585,180.687 282.505,180.687 268.416,125.541 268.138,125.541 254.182,180.687 241.852,180.687 219.575,111.3 
		232.19,111.3 247.884,168.072 248.148,168.072 262.105,111.3 274.581,111.3 289.08,168.072 289.344,168.072 304.913,111.3 
		316.722,111.3 	"/>
	<path d="M370.521,139.358c-0.667-10.864-8.598-19.593-20.004-19.593c-11.809,0-19.183,8.855-19.858,19.593H370.521z
		 M381.517,158.687c-3.093,15.437-13.957,23.618-29.651,23.618c-22.137,0-32.611-15.43-33.286-36.49
		c0-20.942,13.693-36.101,32.605-36.101c24.563,0,32.077,22.944,31.409,39.701H330.66c-0.396,12.087,6.436,22.812,21.602,22.812
		c9.529,0,15.973-4.428,17.988-13.54H381.517z"/>
	<path d="M393.987,111.302h10.745v14.638h0.264c5.505-11.281,13.143-16.653,25.494-16.229v12.066
		c-18.384,0-25.105,10.342-25.105,28.052v30.853h-11.398V111.302z"/>
	<path d="M484.163,139.358c-0.674-10.864-8.591-19.593-20.004-19.593c-11.809,0-19.177,8.855-19.858,19.593H484.163z
		 M495.159,158.687c-3.086,15.437-13.957,23.618-29.651,23.618c-22.137,0-32.611-15.43-33.286-36.49
		c0-20.942,13.693-36.101,32.612-36.101c24.563,0,32.07,22.944,31.402,39.701h-51.934c-0.403,12.087,6.443,22.812,21.602,22.812
		c9.529,0,15.965-4.428,17.988-13.54H495.159z"/>
	<path d="M538.889,172.228c15.437,0,21.22-13.289,21.22-26.162c0-13.554-6.186-26.308-21.887-26.308
		c-15.562,0-20.796,13.303-20.796,26.85C517.426,159.62,524.133,172.228,538.889,172.228 M571.105,180.687h-11.413v-9.39h-0.278
		c-3.754,7.632-12.469,11.003-22.124,11.003c-21.345,0-31.945-16.897-31.945-36.49c0-19.6,10.468-36.108,31.667-36.108
		c6.979,0,17.453,2.683,22.402,10.878h0.278V84.895h11.413V180.687z"/>
	<path d="M649.731,119.757c-15.451,0-21.206,13.303-21.206,26.162c0,13.574,6.172,26.307,21.859,26.307
		c15.576,0,20.803-13.289,20.803-26.822C671.187,132.379,664.487,119.757,649.731,119.757 M617.523,84.893h11.406v35.816h0.264
		c3.754-7.659,12.477-10.996,22.137-10.996c21.331,0,31.945,16.911,31.945,36.476c0,19.726-10.467,36.115-31.674,36.115
		c-6.978,0-17.453-2.697-22.408-10.857h-0.264v9.23h-11.406V84.893z"/>
	<path d="M719.896,189.948c-5.373,13.428-9.926,18.523-20.129,18.523c-2.683,0-5.372-0.257-7.923-1.202v-10.474
		c2.141,0.667,4.434,1.599,6.707,1.599c4.706,0,7.256-2.148,9.397-6.311l4.699-11.788l-27.51-68.991h12.88l20.261,56.772h0.278
		l19.455-56.772h12.073L719.896,189.948z"/>
	<polygon points="1199.389,280.794 1218.648,280.794 1218.648,282.768 1210.182,282.768 1210.182,305.086 1207.861,305.086 
		1207.861,282.768 1199.389,282.768 	"/>
	<polygon points="1221.892,280.794 1225.297,280.794 1233.7,302.091 1242.069,280.794 1245.468,280.794 1245.468,305.086 
		1243.167,305.086 1243.167,284.096 1243.091,284.096 1234.785,305.086 1232.609,305.086 1224.275,284.096 1224.199,284.096 
		1224.199,305.086 1221.892,305.086 	"/>
</g>
</svg>
